<?xml version="1.0" standalone="no"?>
<!DOCTYPE svg PUBLIC "-//W3C//DTD SVG 20010904//EN"
 "http://www.w3.org/TR/2001/REC-SVG-20010904/DTD/svg10.dtd">
<svg version="1.0" xmlns="http://www.w3.org/2000/svg"
 width="512.000000pt" height="512.000000pt" viewBox="0 0 512.000000 512.000000"
 preserveAspectRatio="xMidYMid meet">

<g transform="translate(0.000000,512.000000) scale(0.100000,-0.100000)"
fill="#000000" stroke="none">
<path d="M4508 5067 l-127 -52 -381 -777 c-210 -428 -379 -781 -377 -785 11
-17 298 -146 306 -137 5 5 178 355 385 778 l377 770 -26 125 c-14 68 -26 125
-28 127 -1 1 -59 -21 -129 -49z"/>
<path d="M2045 4811 c-586 -201 -809 -282 -807 -292 8 -38 106 -309 111 -309
3 0 372 126 820 279 l814 278 73 104 c40 57 73 107 74 110 0 9 -239 109 -259
108 -9 0 -380 -125 -826 -278z"/>
<path d="M1093 4538 c-29 -11 -53 -23 -53 -27 0 -5 7 -28 15 -51 8 -23 15 -43
15 -45 0 -1 -32 -13 -70 -26 -58 -19 -73 -21 -88 -11 -111 81 -287 75 -391
-14 -60 -52 -85 -105 -86 -184 0 -58 20 -126 184 -625 101 -308 195 -582 208
-608 36 -72 98 -133 167 -166 34 -17 185 -60 346 -101 157 -39 287 -73 288
-75 2 -2 13 -77 23 -167 25 -207 62 -446 95 -616 15 -73 25 -134 23 -136 -2
-2 -159 -33 -349 -70 -190 -37 -367 -75 -394 -83 -96 -31 -182 -141 -193 -247
-4 -45 6 -87 92 -351 54 -165 130 -402 170 -527 72 -226 102 -293 147 -335 78
-73 233 -91 340 -39 112 54 173 165 149 276 -6 30 -60 206 -119 390 -105 323
-108 335 -88 342 12 4 174 37 361 73 187 36 363 73 391 81 l50 16 195 -123
c284 -179 597 -385 1099 -723 245 -164 463 -307 485 -317 50 -23 140 -24 189
-4 103 43 179 166 180 290 0 85 -25 146 -82 202 -46 44 -1073 734 -1462 981
l-265 168 -7 80 c-4 43 -16 122 -27 174 -36 171 -106 609 -98 616 1 1 198 14
437 28 501 30 509 30 573 53 122 44 208 207 179 338 -8 35 -4 48 27 112 l35
71 47 -24 c27 -13 52 -24 57 -24 10 0 58 98 51 104 -6 6 -388 196 -394 196 -6
0 -57 -101 -53 -105 2 -1 22 -12 46 -24 23 -12 42 -23 42 -25 0 -2 -5 -17 -11
-33 l-10 -31 -97 0 c-53 0 -241 -10 -417 -21 -379 -24 -710 -40 -927 -42
l-156 -3 -321 79 -321 79 -141 428 c-77 236 -142 435 -145 442 -4 9 10 19 42
30 26 9 53 16 59 16 6 0 19 -25 29 -56 12 -37 22 -54 31 -50 7 2 31 10 54 17
23 7 41 18 41 25 0 11 -137 415 -143 420 -1 1 -26 -7 -54 -18z"/>
<path d="M1930 4171 c-77 -24 -139 -63 -196 -121 -94 -95 -136 -200 -137 -335
0 -128 41 -232 126 -322 253 -268 684 -172 803 179 22 65 25 202 5 273 -31
110 -131 239 -223 286 -121 62 -264 77 -378 40z"/>
</g>
</svg>
